<svg width="512" height="512" viewBox="0 0 512 512" fill="none" xmlns="http://www.w3.org/2000/svg">
<path d="M455.805 462.049H56.195V512H455.805V462.049Z" fill="white"/>
<path d="M362.146 18.732V93.659H437.073L362.146 18.732Z" fill="white"/>
<path d="M324.683 131.122V0H56.195V187.317H455.805V131.122H324.683Z" fill="white"/>
<path d="M248.078 298.535H233.691V320.337H248.753C253.656 320.337 256.733 315.552 256.733 309.324C256.732 302.908 253.343 298.535 248.078 298.535Z" fill="white"/>
<path d="M56.195 224.781V424.586H455.805V224.781H56.195ZM195.254 322.922C195.254 351.219 189.346 363.383 164.234 363.383C157.492 363.383 151.72 361.736 146.927 358.437L150.972 343.378C153.365 344.819 157.97 346.973 164.234 346.973C174.984 346.973 176.822 340.371 176.822 322.921V282.349H195.254V322.922V322.922ZM249.876 336.41H233.692V362.146H215.26V282.349H249.313C264.035 282.349 275.388 295.961 275.388 309.324C275.387 324.683 263.88 336.41 249.876 336.41ZM361.028 362.146H345.743V354.279C339.674 359.899 332.667 362.708 324.726 362.708C302.769 362.708 286.401 344.663 286.401 321.684C286.401 298.457 304.877 281.787 326.187 281.787C341.885 281.787 352.525 288.74 358.106 299.206L344.394 309.546C340.076 301.735 333.207 298.195 325.512 298.195C314.163 298.195 305.057 308.291 305.057 322.36C305.057 335.764 313.695 346.299 326.297 346.299C333.492 346.299 339.971 342.965 345.742 336.295V333.824H330.231V320.448H361.027V362.146H361.028Z" fill="white"/>
</svg>
