<svg width="50" height="50" viewBox="0 0 50 50" fill="none" xmlns="http://www.w3.org/2000/svg">
<path d="M6.66797 4C5.20703 4 4 5.20703 4 6.66797V43.332C4 44.793 5.20703 46 6.66797 46H43.332C44.793 46 46 44.7969 46 43.332V6.66797C46 5.20703 44.7969 4 43.332 4H6.66797ZM6.66797 6H43.332C43.7031 6 44 6.29688 44 6.66797V43.332C44 43.7031 43.7031 44 43.332 44H6.66797C6.29688 44 6 43.7031 6 43.332V6.66797C6 6.29688 6.29688 6 6.66797 6ZM23 23V35.5742C23 37.5039 22.2695 38 21 38C19.6719 38 18.75 37.1719 18.1406 36.0977L15 38C15.9102 39.9258 18.1406 42 21.2344 42C24.6562 42 27 40.1797 27 36.1836V23H23ZM35.4531 23C32.0469 23 29.8633 25.1797 29.8633 28.043C29.8633 31.1484 31.6953 32.6172 34.4492 33.7891L35.4023 34.1992C37.1406 34.9609 38 35.4258 38 36.7344C38 37.8242 37.1719 38.6133 35.5898 38.6133C33.707 38.6133 32.8164 37.3359 32 36L29 38C30.1211 40.2148 32.1328 42 35.6758 42C39.3008 42 42 40.1172 42 36.6836C42 33.4961 40.1719 32.0781 36.9258 30.6875L35.9727 30.2812C34.3359 29.5703 33.625 29.1094 33.625 27.9648C33.625 27.0391 34.3359 26.3281 35.4531 26.3281C36.5508 26.3281 37.2539 26.793 37.9062 27.9648L40.8789 26.0586C39.625 23.8437 37.8789 23 35.4531 23Z" fill="white"/>
</svg>
