<svg width="58" height="58" viewBox="0 0 58 58" fill="none" xmlns="http://www.w3.org/2000/svg">
<path d="M33.655 45.988C33.423 45.678 33.158 45.455 32.862 45.318C32.566 45.181 32.254 45.113 31.925 45.113C31.588 45.113 31.267 45.176 30.961 45.304C30.655 45.432 30.382 45.648 30.141 45.953C29.9 46.258 29.71 46.652 29.574 47.136C29.437 47.619 29.364 48.211 29.355 48.913C29.364 49.597 29.435 50.18 29.567 50.663C29.699 51.146 29.881 51.54 30.114 51.846C30.347 52.152 30.611 52.374 30.907 52.516C31.203 52.658 31.515 52.728 31.844 52.728C32.181 52.728 32.502 52.662 32.808 52.53C33.114 52.398 33.387 52.181 33.628 51.881C33.869 51.581 34.059 51.186 34.195 50.698C34.331 50.21 34.405 49.616 34.414 48.914C34.405 48.23 34.334 47.649 34.202 47.171C34.07 46.693 33.888 46.298 33.655 45.988Z" fill="white"/>
<path d="M51.5 39V13.978C51.5 13.212 51.408 12.645 50.95 12.186L39.313 0.55C38.964 0.201 38.48 0 37.985 0H8.963C7.777 0 6.5 0.916 6.5 2.926V39H51.5ZM29.5 33C29.5 33.552 29.053 34 28.5 34C27.947 34 27.5 33.552 27.5 33V30C27.5 29.448 27.947 29 28.5 29C29.053 29 29.5 29.448 29.5 30V33ZM37.5 3.391C37.5 2.933 38.053 2.704 38.377 3.028L48.472 13.123C48.796 13.447 48.567 14 48.109 14H37.5V3.391ZM36.5 24V20C36.5 19.449 36.052 19 35.5 19C34.947 19 34.5 18.552 34.5 18C34.5 17.448 34.947 17 35.5 17C37.154 17 38.5 18.346 38.5 20V24C38.5 25.103 39.397 26 40.5 26C41.053 26 41.5 26.448 41.5 27C41.5 27.552 41.053 28 40.5 28C39.397 28 38.5 28.897 38.5 30V34C38.5 35.654 37.154 37 35.5 37C34.947 37 34.5 36.552 34.5 36C34.5 35.448 34.947 35 35.5 35C36.052 35 36.5 34.551 36.5 34V30C36.5 28.8 37.042 27.734 37.882 27C37.042 26.266 36.5 25.2 36.5 24ZM28.5 22C29.328 22 30 22.672 30 23.5C30 24.328 29.328 25 28.5 25C27.672 25 27 24.328 27 23.5C27 22.672 27.672 22 28.5 22ZM16.5 26C17.603 26 18.5 25.103 18.5 24V20C18.5 18.346 19.846 17 21.5 17C22.053 17 22.5 17.448 22.5 18C22.5 18.552 22.053 19 21.5 19C20.948 19 20.5 19.449 20.5 20V24C20.5 25.2 19.958 26.266 19.118 27C19.958 27.734 20.5 28.8 20.5 30V34C20.5 34.551 20.948 35 21.5 35C22.053 35 22.5 35.448 22.5 36C22.5 36.552 22.053 37 21.5 37C19.846 37 18.5 35.654 18.5 34V30C18.5 28.897 17.603 28 16.5 28C15.947 28 15.5 27.552 15.5 27C15.5 26.448 15.947 26 16.5 26Z" fill="white"/>
<path d="M6.5 41V56C6.5 57.009 7.72 58 8.963 58H49.037C50.28 58 51.5 57.009 51.5 56V41H6.5ZM18.021 51.566C18.021 52.04 17.934 52.439 17.761 52.762C17.588 53.085 17.356 53.345 17.064 53.541C16.772 53.737 16.437 53.874 16.059 53.951C15.681 54.028 15.291 54.067 14.89 54.067C14.69 54.067 14.454 54.046 14.186 54.005C13.918 53.964 13.639 53.901 13.352 53.814C13.065 53.727 12.789 53.629 12.525 53.52C12.261 53.411 12.038 53.288 11.855 53.151L12.552 52.044C12.643 52.107 12.773 52.174 12.942 52.242C13.111 52.31 13.296 52.374 13.496 52.433C13.696 52.492 13.906 52.544 14.125 52.59C14.344 52.636 14.549 52.658 14.74 52.658C15.223 52.658 15.608 52.564 15.895 52.378C16.182 52.192 16.334 51.874 16.353 51.428V43.717H18.021V51.566V51.566ZM25.958 52.298C25.808 52.64 25.596 52.941 25.322 53.2C25.048 53.459 24.712 53.667 24.31 53.822C23.908 53.977 23.454 54.054 22.943 54.054C22.724 54.054 22.499 54.042 22.266 54.02C22.033 53.998 21.799 53.958 21.562 53.904C21.325 53.849 21.099 53.774 20.885 53.678C20.671 53.582 20.487 53.466 20.331 53.329L20.618 52.153C20.746 52.226 20.907 52.297 21.103 52.365C21.299 52.433 21.501 52.497 21.711 52.556C21.921 52.615 22.13 52.663 22.34 52.7C22.55 52.737 22.745 52.755 22.928 52.755C23.484 52.755 23.91 52.625 24.206 52.365C24.502 52.105 24.65 51.72 24.65 51.21C24.65 50.9 24.546 50.636 24.336 50.417C24.126 50.198 23.864 50 23.55 49.822C23.236 49.644 22.896 49.467 22.531 49.289C22.166 49.111 21.825 48.901 21.506 48.66C21.187 48.419 20.923 48.134 20.713 47.806C20.503 47.478 20.399 47.068 20.399 46.576C20.399 46.13 20.481 45.733 20.645 45.387C20.809 45.041 21.03 44.746 21.308 44.505C21.586 44.264 21.91 44.079 22.279 43.951C22.648 43.823 23.038 43.76 23.448 43.76C23.867 43.76 24.291 43.799 24.719 43.876C25.147 43.953 25.493 44.079 25.758 44.252C25.703 44.37 25.64 44.5 25.567 44.642C25.494 44.784 25.425 44.915 25.362 45.038C25.299 45.161 25.244 45.264 25.198 45.346C25.152 45.428 25.125 45.474 25.116 45.483C25.061 45.456 25 45.42 24.931 45.374C24.862 45.328 24.765 45.283 24.637 45.237C24.509 45.191 24.341 45.16 24.131 45.141C23.921 45.122 23.652 45.127 23.324 45.155C23.141 45.174 22.969 45.225 22.804 45.312C22.639 45.399 22.494 45.505 22.366 45.633C22.238 45.761 22.138 45.904 22.065 46.064C21.992 46.224 21.956 46.377 21.956 46.522C21.956 46.886 22.06 47.18 22.27 47.404C22.48 47.628 22.74 47.823 23.049 47.992C23.358 48.161 23.696 48.325 24.061 48.484C24.426 48.643 24.765 48.838 25.08 49.065C25.395 49.292 25.656 49.578 25.866 49.919C26.076 50.26 26.18 50.7 26.18 51.238C26.184 51.603 26.108 51.956 25.958 52.298ZM35.761 51.156C35.547 51.803 35.25 52.341 34.872 52.769C34.494 53.197 34.052 53.521 33.546 53.74C33.04 53.959 32.486 54.068 31.885 54.068C31.284 54.068 30.73 53.959 30.224 53.74C29.718 53.521 29.276 53.198 28.898 52.769C28.52 52.34 28.223 51.803 28.009 51.156C27.795 50.509 27.688 49.761 27.688 48.914C27.688 48.067 27.795 47.321 28.009 46.679C28.223 46.037 28.52 45.501 28.898 45.073C29.276 44.645 29.718 44.319 30.224 44.095C30.73 43.871 31.284 43.76 31.885 43.76C32.486 43.76 33.04 43.871 33.546 44.095C34.052 44.319 34.494 44.644 34.872 45.073C35.25 45.502 35.547 46.037 35.761 46.679C35.975 47.321 36.082 48.067 36.082 48.914C36.082 49.761 35.975 50.509 35.761 51.156ZM45.68 54H44.012L40.061 47.055V54H38.393V43.924H40.061L44.012 50.869V43.924H45.68V54Z" fill="white"/>
</svg>
