<svg width="512" height="512" viewBox="0 0 512 512" fill="none" xmlns="http://www.w3.org/2000/svg">
<path d="M455.805 462.049H56.195V512H455.805V462.049Z" fill="white"/>
<path d="M362.146 18.732V93.659H437.073L362.146 18.732Z" fill="white"/>
<path d="M324.683 131.122V0H56.195V187.317H455.805V131.122H324.683Z" fill="white"/>
<path d="M172.046 298.535H157.659V320.337H172.719C177.622 320.337 180.699 315.552 180.699 309.324C180.7 302.908 177.311 298.535 172.046 298.535Z" fill="white"/>
<path d="M56.195 224.781V424.586H455.805V224.781H56.195ZM173.844 336.41H157.66V362.146H139.228V282.349H173.281C188.003 282.349 199.356 295.961 199.356 309.324C199.357 324.683 187.848 336.41 173.844 336.41ZM284.886 362.146H284.885H270.048L233.295 316.516V362.146H214.865V282.349H229.251L266.452 329.216V282.349H284.885V362.146H284.886ZM375.919 362.146H375.918H360.633V354.279C354.564 359.899 347.557 362.708 339.616 362.708C317.659 362.708 301.291 344.663 301.291 321.684C301.291 298.457 319.767 281.787 341.077 281.787C356.775 281.787 367.415 288.74 372.997 299.206L359.285 309.546C354.967 301.735 348.098 298.195 340.403 298.195C329.054 298.195 319.948 308.291 319.948 322.36C319.948 335.764 328.586 346.299 341.189 346.299C348.384 346.299 354.863 342.965 360.634 336.295V333.824H345.123V320.448H375.919V362.146Z" fill="white"/>
</svg>
