<svg width="512" height="512" viewBox="0 0 512 512" fill="none" xmlns="http://www.w3.org/2000/svg">
<path d="M455.805 462.049H56.1949V512H455.805V462.049Z" fill="white"/>
<path d="M362.146 18.732V93.659H437.073L362.146 18.732Z" fill="white"/>
<path d="M324.683 131.122V0H56.1949V187.317H455.805V131.122H324.683Z" fill="white"/>
<path d="M56.1949 224.781V424.586H455.805V224.781H56.1949ZM175.246 363.047C162.134 363.047 150.972 359.572 141.192 353.155L149.283 337.083C156.28 341.853 165.099 346.413 175.584 346.413C182.103 346.413 185.362 344.427 185.362 340.456C185.362 336.079 180.241 333.66 173.728 331.914C151.894 326.062 144.564 320.702 144.564 307.638C144.564 294.401 153.392 281.677 174.01 281.677C185.158 281.677 193.899 285.503 202.782 290.443L194.69 305.728C188.047 300.723 178.993 298.085 173.448 298.085C166.854 298.085 163.558 300.297 163.558 304.716C163.558 310.558 171.598 312.119 180.304 314.494C197.918 319.299 205.142 325.152 205.142 338.658C205.142 352.052 195.851 363.047 175.246 363.047ZM257.852 362.146H242.342L211.772 282.349H231.327L250.096 338.994L268.64 282.349H288.083L257.852 362.146ZM368.334 362.146H368.333H353.048V354.279C346.979 359.899 339.972 362.708 332.031 362.708C310.074 362.708 293.706 344.663 293.706 321.684C293.706 298.457 312.182 281.787 333.492 281.787C349.19 281.787 359.83 288.74 365.412 299.206L351.7 309.546C347.382 301.735 340.513 298.195 332.818 298.195C321.469 298.195 312.363 308.291 312.363 322.36C312.363 335.764 321.001 346.299 333.604 346.299C340.799 346.299 347.278 342.965 353.049 336.295V333.824H337.538V320.448H368.334V362.146Z" fill="white"/>
</svg>
