<svg width="50" height="50" viewBox="0 0 50 50" fill="none" xmlns="http://www.w3.org/2000/svg">
<path d="M5 4C4.73479 4.00003 4.48045 4.10539 4.29292 4.29292C4.10539 4.48045 4.00003 4.73479 4 5V45C4.00003 45.2652 4.10539 45.5195 4.29292 45.7071C4.48045 45.8946 4.73479 46 5 46H45C45.2652 46 45.5195 45.8946 45.7071 45.7071C45.8946 45.5195 46 45.2652 46 45V5C46 4.73479 45.8946 4.48045 45.7071 4.29292C45.5195 4.10539 45.2652 4.00003 45 4H5ZM6 6H44V44H6V6ZM15 23V26.4453H20V42H24V26.4453H29V23H15ZM36.6914 23.0098C33.5768 22.9974 30.0176 23.9412 30.0176 28.3242C30.0176 34.0542 37.7383 34.0556 37.7383 36.6406C37.7383 36.8856 37.8422 38.666 35.1172 38.666C32.3922 38.666 30.1211 36.9531 30.1211 36.9531V41.1113C30.1211 41.1113 42.002 44.9541 42.002 36.2891C42.001 30.6641 34.209 30.9454 34.209 28.1504C34.209 27.0674 34.9784 26.0547 37.1094 26.0547C39.2404 26.0547 41.127 27.3125 41.127 27.3125L41.2676 23.6074C41.2676 23.6074 39.1139 23.0194 36.6914 23.0098Z" fill="white"/>
</svg>
