<svg width="58" height="58" viewBox="0 0 58 58" fill="none" xmlns="http://www.w3.org/2000/svg">
<path d="M51.5 39V13.978C51.5 13.212 51.408 12.645 50.95 12.186L39.313 0.55C38.964 0.201 38.48 0 37.985 0H8.963C7.777 0 6.5 0.916 6.5 2.926V39H51.5ZM37.5 3.391C37.5 2.933 38.053 2.704 38.377 3.028L48.472 13.123C48.796 13.447 48.567 14 48.109 14H37.5V3.391ZM33.793 18.707C33.402 18.316 33.402 17.684 33.793 17.293C34.184 16.902 34.816 16.902 35.207 17.293L41.207 23.293C41.598 23.684 41.598 24.316 41.207 24.707L35.207 30.707C35.012 30.902 34.756 31 34.5 31C34.244 31 33.988 30.902 33.793 30.707C33.402 30.316 33.402 29.684 33.793 29.293L39.086 24L33.793 18.707ZM24.557 31.667L30.557 14.667C30.742 14.146 31.31 13.872 31.833 14.057C32.354 14.241 32.627 14.812 32.443 15.333L26.443 32.333C26.298 32.744 25.912 33 25.5 33C25.39 33 25.277 32.981 25.167 32.942C24.646 32.759 24.373 32.188 24.557 31.667ZM15.793 23.293L21.793 17.293C22.184 16.902 22.816 16.902 23.207 17.293C23.598 17.684 23.598 18.316 23.207 18.707L17.914 24L23.207 29.293C23.598 29.684 23.598 30.316 23.207 30.707C23.012 30.902 22.756 31 22.5 31C22.244 31 21.988 30.902 21.793 30.707L15.793 24.707C15.402 24.316 15.402 23.684 15.793 23.293Z" fill="white"/>
<path d="M6.5 41V56C6.5 57.009 7.72 58 8.963 58H49.037C50.28 58 51.5 57.009 51.5 56V41H6.5ZM22.936 54H21.036L19.436 50.199H19.299L17.576 54H15.676L18.233 49.105L15.512 43.923H17.385L19.162 48.025H19.299L21.227 43.923H23.1L20.379 49.105L22.936 54ZM34.666 54H32.998V47.068L30.742 52.673H29.293L27.023 47.068V54H25.355V43.924H27.023L30.017 50.815L32.997 43.924H34.665V54H34.666ZM43.498 54H37.195V43.924H38.863V52.756H43.498V54Z" fill="white"/>
</svg>
