<?xml version="1.0" encoding="UTF-8" standalone="no"?>
<svg
   xmlns:dc="http://purl.org/dc/elements/1.1/"
   xmlns:cc="http://creativecommons.org/ns#"
   xmlns:rdf="http://www.w3.org/1999/02/22-rdf-syntax-ns#"
   xmlns:svg="http://www.w3.org/2000/svg"
   xmlns="http://www.w3.org/2000/svg"
   xmlns:sodipodi="http://sodipodi.sourceforge.net/DTD/sodipodi-0.dtd"
   xmlns:inkscape="http://www.inkscape.org/namespaces/inkscape"
   version="1.1"
   id="svg2"
   xml:space="preserve"
   width="1333.3333"
   height="1066.6667"
   viewBox="0 0 1333.3333 1066.6667"
   sodipodi:docname="007-03.eps"><metadata
     id="metadata8"><rdf:RDF><cc:Work
         rdf:about=""><dc:format>image/svg+xml</dc:format><dc:type
           rdf:resource="http://purl.org/dc/dcmitype/StillImage" /></cc:Work></rdf:RDF></metadata><defs
     id="defs6" /><sodipodi:namedview
     pagecolor="#ffffff"
     bordercolor="#666666"
     borderopacity="1"
     objecttolerance="10"
     gridtolerance="10"
     guidetolerance="10"
     inkscape:pageopacity="0"
     inkscape:pageshadow="2"
     inkscape:window-width="640"
     inkscape:window-height="480"
     id="namedview4" /><g
     id="g10"
     inkscape:groupmode="layer"
     inkscape:label="ink_ext_XXXXXX"
     transform="matrix(1.3333333,0,0,-1.3333333,0,1066.6667)"><g
       id="g12"
       transform="scale(0.1)"><path
         d="m 7216.03,4117.68 -4542.38,1933.53 448.44,-663.23 2031.72,-877.27 1155.86,-490.54 c 78.98,-33.52 79.75,-145.19 1.23,-179.78 L 4076.32,2855.72 c -90.07,-39.69 -175.84,63.38 -120.45,144.74 l 627.7,921.94 c 23.8,34.95 22.48,81.24 -3.28,114.77 l -346.74,451.49 -710.18,305.83 495.65,-645.38 c 47.61,-62 50.06,-147.56 6.07,-212.18 L 2864.69,2232.6 c -102.41,-150.41 56.16,-340.95 222.67,-267.58 L 7218.3,3785.33 c 145.15,63.95 143.74,270.39 -2.27,332.35"
         style="fill:#e9202a;fill-opacity:1;fill-rule:nonzero;stroke:none"
         id="path14" /></g></g></svg>
