<?xml version="1.0" encoding="iso-8859-1"?>
<!-- Generator: Adobe Illustrator 18.0.0, SVG Export Plug-In . SVG Version: 6.00 Build 0)  -->
<!DOCTYPE svg PUBLIC "-//W3C//DTD SVG 1.1//EN" "http://www.w3.org/Graphics/SVG/1.1/DTD/svg11.dtd">
<svg version="1.1" id="Capa_1" xmlns="http://www.w3.org/2000/svg" xmlns:xlink="http://www.w3.org/1999/xlink" x="0px" y="0px"
	 viewBox="0 0 58 58" style="enable-background:new 0 0 58 58;" xml:space="preserve">
<g>
	<path d="M6.5,41v15c0,1.009,1.22,2,2.463,2h40.074c1.243,0,2.463-0.991,2.463-2V41H6.5z M19.46,50.664
		c0.132,0.483,0.314,0.877,0.547,1.183s0.497,0.528,0.793,0.67s0.608,0.212,0.937,0.212s0.636-0.06,0.923-0.178
		s0.549-0.31,0.786-0.574l1.135,0.998c-0.374,0.364-0.798,0.638-1.271,0.82s-0.984,0.273-1.531,0.273
		c-0.602,0-1.155-0.109-1.661-0.328s-0.948-0.542-1.326-0.971s-0.675-0.966-0.889-1.613c-0.214-0.647-0.321-1.395-0.321-2.242
		s0.107-1.593,0.321-2.235c0.214-0.643,0.511-1.178,0.889-1.606s0.822-0.754,1.333-0.978s1.062-0.335,1.654-0.335
		c0.547,0,1.058,0.091,1.531,0.273s0.897,0.456,1.271,0.82l-1.135,1.012c-0.228-0.265-0.48-0.456-0.759-0.574
		s-0.567-0.178-0.868-0.178c-0.337,0-0.658,0.063-0.964,0.191s-0.579,0.344-0.82,0.649s-0.431,0.699-0.567,1.183
		s-0.21,1.075-0.219,1.777C19.257,49.598,19.328,50.181,19.46,50.664z M32.407,52.298c-0.15,0.342-0.362,0.643-0.636,0.902
		s-0.61,0.467-1.012,0.622s-0.856,0.232-1.367,0.232c-0.219,0-0.444-0.012-0.677-0.034s-0.467-0.062-0.704-0.116
		s-0.463-0.13-0.677-0.226s-0.398-0.212-0.554-0.349l0.287-1.176c0.128,0.073,0.289,0.144,0.485,0.212s0.398,0.132,0.608,0.191
		s0.419,0.107,0.629,0.144s0.405,0.055,0.588,0.055c0.556,0,0.982-0.13,1.278-0.39s0.444-0.645,0.444-1.155
		c0-0.31-0.104-0.574-0.314-0.793s-0.472-0.417-0.786-0.595s-0.654-0.355-1.019-0.533s-0.706-0.388-1.025-0.629
		s-0.583-0.526-0.793-0.854s-0.314-0.738-0.314-1.23c0-0.446,0.082-0.843,0.246-1.189s0.385-0.641,0.663-0.882
		s0.602-0.426,0.971-0.554s0.759-0.191,1.169-0.191c0.419,0,0.843,0.039,1.271,0.116s0.774,0.203,1.039,0.376
		c-0.055,0.118-0.118,0.248-0.191,0.39s-0.142,0.273-0.205,0.396c-0.063,0.123-0.118,0.226-0.164,0.308s-0.073,0.128-0.082,0.137
		c-0.055-0.027-0.116-0.063-0.185-0.109s-0.166-0.091-0.294-0.137s-0.296-0.077-0.506-0.096s-0.479-0.014-0.807,0.014
		c-0.183,0.019-0.355,0.07-0.52,0.157s-0.31,0.193-0.438,0.321s-0.228,0.271-0.301,0.431s-0.109,0.313-0.109,0.458
		c0,0.364,0.104,0.658,0.314,0.882s0.47,0.419,0.779,0.588s0.647,0.333,1.012,0.492s0.704,0.354,1.019,0.581
		s0.576,0.513,0.786,0.854s0.314,0.781,0.314,1.319C32.633,51.603,32.558,51.956,32.407,52.298z M39.817,52.298
		c-0.15,0.342-0.362,0.643-0.636,0.902s-0.61,0.467-1.012,0.622s-0.856,0.232-1.367,0.232c-0.219,0-0.444-0.012-0.677-0.034
		s-0.467-0.062-0.704-0.116s-0.463-0.13-0.677-0.226s-0.398-0.212-0.554-0.349l0.287-1.176c0.128,0.073,0.289,0.144,0.485,0.212
		s0.398,0.132,0.608,0.191s0.419,0.107,0.629,0.144s0.405,0.055,0.588,0.055c0.556,0,0.982-0.13,1.278-0.39s0.444-0.645,0.444-1.155
		c0-0.31-0.104-0.574-0.314-0.793s-0.472-0.417-0.786-0.595s-0.654-0.355-1.019-0.533s-0.706-0.388-1.025-0.629
		s-0.583-0.526-0.793-0.854s-0.314-0.738-0.314-1.23c0-0.446,0.082-0.843,0.246-1.189s0.385-0.641,0.663-0.882
		s0.602-0.426,0.971-0.554s0.759-0.191,1.169-0.191c0.419,0,0.843,0.039,1.271,0.116s0.774,0.203,1.039,0.376
		c-0.055,0.118-0.118,0.248-0.191,0.39s-0.142,0.273-0.205,0.396s-0.118,0.226-0.164,0.308s-0.073,0.128-0.082,0.137
		c-0.055-0.027-0.116-0.063-0.185-0.109s-0.166-0.091-0.294-0.137s-0.296-0.077-0.506-0.096s-0.479-0.014-0.807,0.014
		c-0.183,0.019-0.355,0.07-0.52,0.157s-0.31,0.193-0.438,0.321s-0.228,0.271-0.301,0.431s-0.109,0.313-0.109,0.458
		c0,0.364,0.104,0.658,0.314,0.882s0.47,0.419,0.779,0.588s0.647,0.333,1.012,0.492s0.704,0.354,1.019,0.581
		s0.576,0.513,0.786,0.854s0.314,0.781,0.314,1.319C40.043,51.603,39.968,51.956,39.817,52.298z"/>
	<path d="M51.5,39V13.978c0-0.766-0.092-1.333-0.55-1.792L39.313,0.55C38.964,0.201,38.48,0,37.985,0H8.963
		C7.777,0,6.5,0.916,6.5,2.926V39H51.5z M37.5,3.391c0-0.458,0.553-0.687,0.877-0.363l10.095,10.095
		C48.796,13.447,48.567,14,48.109,14H37.5V3.391z M36.5,23v-4c0-0.551-0.448-1-1-1c-0.553,0-1-0.448-1-1s0.447-1,1-1
		c1.654,0,3,1.346,3,3v4c0,1.103,0.897,2,2,2c0.553,0,1,0.448,1,1s-0.447,1-1,1c-1.103,0-2,0.897-2,2v4c0,1.654-1.346,3-3,3
		c-0.553,0-1-0.448-1-1s0.447-1,1-1c0.552,0,1-0.449,1-1v-4c0-1.2,0.542-2.266,1.382-3C37.042,25.266,36.5,24.2,36.5,23z M16.5,25
		c1.103,0,2-0.897,2-2v-4c0-1.654,1.346-3,3-3c0.553,0,1,0.448,1,1s-0.447,1-1,1c-0.552,0-1,0.449-1,1v4c0,1.2-0.542,2.266-1.382,3
		c0.84,0.734,1.382,1.8,1.382,3v4c0,0.551,0.448,1,1,1c0.553,0,1,0.448,1,1s-0.447,1-1,1c-1.654,0-3-1.346-3-3v-4
		c0-1.103-0.897-2-2-2c-0.553,0-1-0.448-1-1S15.947,25,16.5,25z"/>
</g>
<g>
</g>
<g>
</g>
<g>
</g>
<g>
</g>
<g>
</g>
<g>
</g>
<g>
</g>
<g>
</g>
<g>
</g>
<g>
</g>
<g>
</g>
<g>
</g>
<g>
</g>
<g>
</g>
<g>
</g>
</svg>
