<?xml version="1.0" encoding="iso-8859-1"?>
<!-- Generator: Adobe Illustrator 19.0.0, SVG Export Plug-In . SVG Version: 6.00 Build 0)  -->
<svg version="1.1" id="Layer_1" xmlns="http://www.w3.org/2000/svg" xmlns:xlink="http://www.w3.org/1999/xlink" x="0px" y="0px"
	 viewBox="0 0 512 512" style="enable-background:new 0 0 512 512;" xml:space="preserve">
<g>
	<g>
		<rect x="56.195" y="462.049" width="399.61" height="49.951"/>
	</g>
</g>
<g>
	<g>
		<polygon points="362.146,18.732 362.146,93.659 437.073,93.659 		"/>
	</g>
</g>
<g>
	<g>
		<polygon points="324.683,131.122 324.683,0 56.195,0 56.195,187.317 455.805,187.317 455.805,131.122 		"/>
	</g>
</g>
<g>
	<g>
		<path d="M172.046,298.535h-14.387v21.802h15.06c4.903,0,7.98-4.785,7.98-11.013C180.7,302.908,177.311,298.535,172.046,298.535z"
			/>
	</g>
</g>
<g>
	<g>
		<path d="M56.195,224.781v199.805h399.61V224.781H56.195z M173.844,336.41H157.66v25.736h-18.432v-79.797h34.053
			c14.722,0,26.075,13.612,26.075,26.975C199.357,324.683,187.848,336.41,173.844,336.41z M284.886,362.146h-0.001h-14.837
			l-36.753-45.63v45.63h-18.43v-79.797h14.386l37.201,46.867v-46.867h18.433V362.146z M375.919,362.146h-0.001h-15.285v-7.867
			c-6.069,5.62-13.076,8.429-21.017,8.429c-21.957,0-38.325-18.045-38.325-41.024c0-23.227,18.476-39.897,39.786-39.897
			c15.698,0,26.338,6.953,31.92,17.419l-13.712,10.34c-4.318-7.811-11.187-11.351-18.882-11.351
			c-11.349,0-20.455,10.096-20.455,24.165c0,13.404,8.638,23.939,21.241,23.939c7.195,0,13.674-3.334,19.445-10.004v-2.471h-15.511
			v-13.376h30.796V362.146z"/>
	</g>
</g>
<g>
</g>
<g>
</g>
<g>
</g>
<g>
</g>
<g>
</g>
<g>
</g>
<g>
</g>
<g>
</g>
<g>
</g>
<g>
</g>
<g>
</g>
<g>
</g>
<g>
</g>
<g>
</g>
<g>
</g>
</svg>
