<?xml version="1.0" encoding="iso-8859-1"?>
<!-- Generator: Adobe Illustrator 19.0.0, SVG Export Plug-In . SVG Version: 6.00 Build 0)  -->
<svg version="1.1" id="Layer_1" xmlns="http://www.w3.org/2000/svg" xmlns:xlink="http://www.w3.org/1999/xlink" x="0px" y="0px"
	 viewBox="0 0 512 512" style="enable-background:new 0 0 512 512;" xml:space="preserve">
<g>
	<g>
		<rect x="56.195" y="462.049" width="399.61" height="49.951"/>
	</g>
</g>
<g>
	<g>
		<polygon points="362.146,18.732 362.146,93.659 437.073,93.659 		"/>
	</g>
</g>
<g>
	<g>
		<polygon points="324.683,131.122 324.683,0 56.195,0 56.195,187.317 455.805,187.317 455.805,131.122 		"/>
	</g>
</g>
<g>
	<g>
		<path d="M56.195,224.781v199.805h399.61V224.781H56.195z M175.246,363.047c-13.112,0-24.274-3.475-34.054-9.892l8.091-16.072
			c6.997,4.77,15.816,9.33,26.301,9.33c6.519,0,9.778-1.986,9.778-5.957c0-4.377-5.121-6.796-11.634-8.542
			c-21.834-5.852-29.164-11.212-29.164-24.276c0-13.237,8.828-25.961,29.446-25.961c11.148,0,19.889,3.826,28.772,8.766
			l-8.092,15.285c-6.643-5.005-15.697-7.643-21.242-7.643c-6.594,0-9.89,2.212-9.89,6.631c0,5.842,8.04,7.403,16.746,9.778
			c17.614,4.805,24.838,10.658,24.838,24.164C205.142,352.052,195.851,363.047,175.246,363.047z M257.852,362.146h-15.51
			l-30.57-79.797h19.555l18.769,56.645l18.544-56.645h19.443L257.852,362.146z M368.334,362.146h-0.001h-15.285v-7.867
			c-6.069,5.62-13.076,8.429-21.017,8.429c-21.957,0-38.325-18.045-38.325-41.024c0-23.227,18.476-39.897,39.786-39.897
			c15.698,0,26.338,6.953,31.92,17.419l-13.712,10.34c-4.318-7.811-11.187-11.351-18.882-11.351
			c-11.349,0-20.455,10.096-20.455,24.165c0,13.404,8.638,23.939,21.241,23.939c7.195,0,13.674-3.334,19.445-10.004v-2.471h-15.511
			v-13.376h30.796V362.146z"/>
	</g>
</g>
<g>
</g>
<g>
</g>
<g>
</g>
<g>
</g>
<g>
</g>
<g>
</g>
<g>
</g>
<g>
</g>
<g>
</g>
<g>
</g>
<g>
</g>
<g>
</g>
<g>
</g>
<g>
</g>
<g>
</g>
</svg>
